<svg xmlns="http://www.w3.org/2000/svg" width="375" viewBox="0 0 375 375" height="375" version="1.0"><defs><clipPath id="a"><path d="M 112.5 112.5 L 262.5 112.5 L 262.5 262.5 L 112.5 262.5 Z M 112.5 112.5"/></clipPath></defs><g clip-path="url(#a)"><path d="M 187.5 262.5 C 228.921875 262.5 262.5 228.921875 262.5 187.5 C 262.5 146.078125 228.921875 112.5 187.5 112.5 C 146.078125 112.5 112.5 146.078125 112.5 187.5 C 112.5 228.921875 146.078125 262.5 187.5 262.5 Z M 147.5 147.5 L 147.5 160.832031 L 227.5 160.832031 L 227.5 147.5 Z M 147.5 214.167969 L 147.5 227.5 L 227.5 227.5 L 227.5 214.167969 Z M 227.5 194.167969 L 147.5 194.167969 L 147.5 180.832031 L 227.5 180.832031 Z M 227.5 194.167969" fill-rule="evenodd"/></g></svg>