<svg width="57" height="56" viewBox="0 0 57 56" fill="none" xmlns="http://www.w3.org/2000/svg">
<ellipse cx="28.5" cy="28" rx="28.5" ry="28" fill="#F3C394"/>
<circle cx="11" cy="15" r="3" fill="#51291E" fill-opacity="0.64"/>
<circle cx="28" cy="48" r="3" fill="#51291E" fill-opacity="0.64"/>
<circle cx="10" cy="27" r="3" fill="#51291E" fill-opacity="0.64"/>
<circle cx="22" cy="35" r="3" fill="#51291E" fill-opacity="0.64"/>
<circle cx="35" cy="32" r="3" fill="#51291E" fill-opacity="0.64"/>
<circle cx="42" cy="16" r="3" fill="#51291E" fill-opacity="0.64"/>
<path d="M29.5 7.22882C29.5048 9.5609 31.1569 9.49657 29.5 9.5C27.8431 9.50343 25.0074 9.5609 25.0025 7.22882C24.9977 4.89674 26.3369 3.00344 27.9938 3.00001C29.6506 2.99658 29.4952 4.89674 29.5 7.22882Z" fill="#51291E" fill-opacity="0.64"/>
<path d="M44.5062 44.2334C44.511 46.5655 46.163 46.5012 44.5062 46.5046C42.8493 46.508 40.0136 46.5655 40.0087 44.2334C40.0039 41.9013 41.3431 40.008 43 40.0046C44.6568 40.0012 44.5014 41.9013 44.5062 44.2334Z" fill="#51291E" fill-opacity="0.64"/>
<path d="M23.7363 19.2832C23.7283 16.9511 22.0764 17.0176 23.7332 17.012C25.3901 17.0063 28.2258 16.9451 28.2337 19.2771C28.2417 21.6092 26.905 23.5043 25.2482 23.5099C23.5913 23.5156 23.7442 21.6152 23.7363 19.2832Z" fill="#51291E" fill-opacity="0.64"/>
<path d="M46.5366 28.8627C45.8625 26.6302 44.2984 27.1661 45.8846 26.6871C47.4707 26.2082 50.1706 25.339 50.8447 27.5715C51.5189 29.804 50.7796 32.0021 49.1934 32.4811C47.6073 32.96 47.2107 31.0952 46.5366 28.8627Z" fill="#51291E" fill-opacity="0.64"/>
<path d="M12.5062 40.2334C12.511 42.5655 14.163 42.5012 12.5062 42.5046C10.8493 42.508 8.01357 42.5655 8.00874 40.2334C8.00391 37.9013 9.34314 36.008 11 36.0046C12.6568 36.0012 12.5014 37.9013 12.5062 40.2334Z" fill="#51291E" fill-opacity="0.64"/>
</svg>
